<svg id="svg" version="1.1" xmlns="http://www.w3.org/2000/svg" xmlns:xlink="http://www.w3.org/1999/xlink" width="400" height="400" viewBox="0, 0, 400,400"><g id="svgg"><path id="path0" d="M207.748 135.476 C 205.574 136.994,204.737 138.357,203.321 142.679 C 200.142 152.382,206.572 162.644,220.266 169.724 C 223.035 171.156,223.153 171.481,220.899 171.481 C 217.356 171.481,211.767 168.974,206.119 164.850 C 202.215 161.999,201.973 162.153,203.937 166.235 C 207.134 172.883,217.587 179.630,224.689 179.630 C 225.166 179.630,225.556 179.796,225.556 180.000 C 225.556 180.233,223.164 180.370,219.123 180.370 C 209.944 180.370,204.632 179.340,198.806 176.429 C 195.741 174.899,195.926 174.883,195.926 176.679 C 195.926 178.419,197.050 181.334,197.308 180.262 C 197.408 179.847,197.699 179.667,198.086 179.781 C 211.093 183.620,224.748 183.434,233.042 179.306 C 234.614 178.524,235.950 178.035,236.011 178.219 C 236.073 178.404,236.620 178.021,237.228 177.368 C 237.836 176.716,238.097 176.318,237.807 176.485 C 237.410 176.714,237.343 176.629,237.531 176.137 C 239.463 171.105,235.303 166.965,225.556 164.220 C 208.687 159.470,202.077 147.165,210.010 135.278 C 211.117 133.619,210.307 133.690,207.748 135.476 M211.140 134.761 C 210.487 135.982,210.261 140.177,210.709 142.753 C 212.053 150.469,216.926 155.121,227.059 158.360 C 234.851 160.851,240.273 164.120,241.491 167.061 C 242.118 168.574,242.480 167.936,242.807 164.740 C 243.668 156.337,240.125 152.465,231.475 152.356 C 220.249 152.214,215.085 147.673,214.648 137.561 C 214.567 135.685,214.354 134.615,214.022 134.404 C 213.129 133.839,211.528 134.037,211.140 134.761 M264.705 201.389 C 264.587 204.190,264.135 210.065,263.701 214.444 C 262.926 222.265,262.784 232.168,263.438 232.821 C 263.999 233.381,268.618 230.786,268.318 230.079 C 267.019 227.021,266.917 226.338,266.946 220.926 C 266.963 217.829,267.399 211.273,267.932 206.111 C 268.458 201.019,268.888 196.727,268.888 196.574 C 268.889 196.421,267.996 196.296,266.904 196.296 L 264.918 196.296 264.705 201.389 M170.873 199.471 C 165.476 200.377,160.629 202.131,160.885 203.084 C 161.004 203.527,161.103 204.036,161.106 204.215 C 161.109 204.395,161.694 204.447,162.407 204.331 L 163.704 204.121 163.704 205.760 C 163.704 207.389,163.695 207.400,162.203 207.639 C 160.213 207.957,160.087 210.038,162.037 210.372 L 163.148 210.562 163.333 219.633 L 163.519 228.704 165.556 228.704 L 167.593 228.704 167.567 226.481 C 167.553 225.259,167.401 221.365,167.230 217.826 L 166.918 211.394 167.811 211.668 C 172.102 212.989,175.950 215.160,179.859 218.465 C 182.358 220.578,187.037 225.939,187.037 226.689 C 187.037 227.275,187.726 227.082,189.267 226.062 C 191.308 224.711,191.311 224.716,185.996 219.583 C 181.002 214.760,178.497 213.032,173.575 211.015 L 170.668 209.824 174.871 209.015 C 181.925 207.656,184.892 206.348,185.789 204.201 C 187.576 199.925,180.856 197.794,170.873 199.471 M178.850 202.209 C 181.689 202.620,182.267 203.045,181.058 203.834 C 179.845 204.626,174.158 206.189,170.278 206.797 L 167.037 207.305 167.037 205.186 L 167.037 203.068 169.722 202.646 C 173.813 202.003,174.175 201.956,175.370 201.910 C 175.981 201.886,177.547 202.021,178.850 202.209 M244.444 206.894 C 243.731 206.980,242.023 207.229,240.648 207.447 L 238.148 207.845 238.148 209.478 C 238.148 211.380,238.356 211.437,242.037 210.548 C 243.259 210.253,245.843 210.020,247.778 210.030 L 251.296 210.048 247.703 211.279 C 239.924 213.943,235.939 217.291,235.917 221.179 L 235.908 222.778 234.978 220.556 C 233.608 217.283,232.234 212.383,232.164 210.520 L 232.102 208.889 229.984 208.889 L 227.866 208.889 227.432 210.613 C 226.354 214.892,222.642 220.634,220.462 221.394 C 216.320 222.838,216.028 216.024,220.017 211.040 C 221.433 209.271,221.396 208.755,219.784 207.759 L 218.457 206.938 217.469 207.672 C 214.462 209.905,213.006 217.469,214.886 221.089 C 217.692 226.490,224.697 225.089,228.542 218.357 L 229.586 216.530 230.851 219.306 C 234.775 227.915,234.388 231.688,229.320 234.244 C 222.357 237.755,204.253 235.236,191.591 228.996 C 187.750 227.103,187.601 227.109,186.143 229.214 C 184.596 231.445,187.097 233.142,196.542 236.271 C 220.054 244.062,237.273 240.159,236.593 227.195 L 236.434 224.169 237.650 224.677 C 241.086 226.113,250.908 222.812,255.509 218.676 C 257.832 216.586,257.833 216.576,255.288 223.508 C 253.457 228.497,253.476 228.598,256.366 229.086 C 258.341 229.420,258.429 229.291,259.700 224.197 C 261.855 215.555,261.503 210.587,258.598 208.646 C 256.508 207.251,249.094 206.332,244.444 206.894 M196.447 209.271 C 191.531 210.245,188.159 213.529,188.150 217.351 C 188.129 226.175,210.756 225.761,211.753 216.920 C 212.386 211.303,204.946 207.586,196.447 209.271 M255.171 212.500 C 255.105 213.785,249.683 218.293,245.928 220.184 C 240.311 223.013,237.586 221.671,241.942 218.221 C 245.273 215.581,255.234 211.274,255.171 212.500 M203.874 213.125 C 207.371 214.178,208.419 216.453,206.357 218.515 C 202.738 222.134,192.593 220.889,192.593 216.825 C 192.593 213.596,198.740 211.580,203.874 213.125 M186.852 245.185 C 186.543 245.685,186.959 246.296,187.609 246.296 C 188.079 246.296,184.841 251.249,183.948 251.896 C 182.342 253.059,187.283 255.119,191.784 255.163 C 195.023 255.194,195.703 254.774,195.408 252.928 C 195.210 251.693,195.275 251.481,195.847 251.481 C 196.696 251.481,197.407 250.783,197.407 249.951 C 197.407 248.441,187.581 244.005,186.852 245.185 M194.591 249.352 C 195.901 250.076,194.422 250.132,191.792 249.458 C 189.095 248.767,189.010 248.710,189.608 247.989 C 190.066 247.438,192.169 248.012,194.591 249.352 M238.253 248.932 C 237.996 249.189,237.918 250.095,238.045 251.327 C 238.198 252.814,238.096 253.543,237.635 254.247 C 236.393 256.141,235.004 254.736,235.443 252.030 C 235.648 250.766,235.604 250.684,234.783 250.801 C 232.958 251.061,232.877 254.997,234.672 256.173 C 236.644 257.465,240.000 255.292,240.000 252.723 C 240.000 251.688,240.063 251.677,241.592 252.452 C 248.320 255.859,237.781 263.118,227.001 262.503 C 224.131 262.340,223.656 262.402,223.103 263.013 C 222.122 264.097,222.703 264.260,227.532 264.253 C 240.666 264.235,251.019 255.258,242.900 250.926 C 241.755 250.315,240.496 249.523,240.102 249.167 C 239.270 248.414,238.828 248.357,238.253 248.932 M190.736 251.207 C 194.527 253.103,193.872 254.506,189.575 253.695 C 186.089 253.037,186.195 253.131,187.049 251.458 C 187.942 249.707,187.760 249.719,190.736 251.207 M230.896 250.359 C 230.144 250.663,228.440 252.459,227.998 253.412 C 227.824 253.789,227.733 253.792,227.562 253.426 C 227.321 252.911,226.348 252.823,225.668 253.256 C 225.348 253.460,225.577 254.234,226.502 256.072 C 227.204 257.467,227.778 258.921,227.778 259.304 C 227.778 260.007,228.359 260.180,229.393 259.783 C 229.829 259.616,229.878 259.357,229.608 258.648 C 228.520 255.786,229.629 252.525,231.856 252.036 C 232.713 251.848,232.963 251.591,232.963 250.896 C 232.963 249.941,232.333 249.777,230.896 250.359 M208.391 252.500 C 208.293 252.856,208.012 254.036,207.766 255.121 C 207.521 256.206,207.131 257.166,206.901 257.255 C 206.670 257.344,206.455 258.206,206.423 259.171 C 206.390 260.136,206.087 261.733,205.748 262.720 C 205.052 264.749,205.030 264.669,206.353 265.001 C 207.241 265.224,207.358 265.129,207.574 264.013 C 207.706 263.333,207.990 261.981,208.206 261.007 L 208.598 259.236 210.318 260.230 C 211.263 260.778,213.469 262.200,215.219 263.390 C 218.553 265.659,219.254 265.899,219.982 265.022 C 220.531 264.360,218.932 263.133,213.544 260.079 L 209.865 257.994 212.895 257.089 C 216.118 256.128,216.167 256.089,215.418 255.103 C 214.967 254.509,214.754 254.542,212.248 255.595 C 209.057 256.935,209.026 256.919,209.781 254.322 C 210.526 251.760,210.537 251.852,209.469 251.852 C 208.926 251.852,208.498 252.109,208.391 252.500 M196.296 253.704 C 196.296 254.285,196.556 254.452,197.500 254.481 C 200.146 254.563,200.655 255.040,198.333 255.263 C 194.388 255.643,192.786 257.024,194.409 258.648 C 195.271 259.510,199.083 259.755,202.011 259.137 L 203.466 258.830 202.474 260.131 C 201.238 261.751,201.233 262.146,202.438 262.604 C 204.997 263.577,206.799 256.301,204.366 254.821 C 201.775 253.245,196.296 252.487,196.296 253.704 M220.481 255.584 C 214.293 257.545,213.780 262.244,219.806 261.761 C 222.464 261.547,227.037 259.655,227.037 258.769 C 227.037 257.413,226.057 257.382,223.916 258.672 C 221.598 260.068,219.066 260.696,218.409 260.039 C 218.111 259.740,218.195 259.627,218.722 259.621 C 220.657 259.600,224.444 257.137,224.444 255.901 C 224.444 254.674,223.573 254.604,220.481 255.584 M202.222 256.843 C 200.041 258.070,195.049 258.506,196.185 257.371 C 196.524 257.032,200.077 256.435,202.222 256.356 L 203.148 256.323 202.222 256.843 M220.984 257.451 C 220.200 257.864,219.477 258.119,219.377 258.019 C 219.131 257.773,221.150 256.696,221.852 256.698 C 222.157 256.699,221.767 257.037,220.984 257.451 " stroke="none" fill="#fbfbfb" fill-rule="evenodd"></path><path id="path1" d="M224.259 103.844 C 223.648 104.094,222.220 104.733,221.085 105.263 C 216.166 107.564,213.954 107.825,210.619 106.499 C 201.821 103.001,190.891 104.937,183.973 111.219 C 182.709 112.367,182.299 112.511,179.668 112.730 C 173.847 113.215,171.743 114.248,168.626 118.148 C 167.406 119.676,165.840 121.426,165.148 122.038 C 161.745 125.043,159.694 126.667,159.303 126.667 C 156.407 126.667,148.924 132.485,147.795 135.614 C 146.984 137.864,144.561 142.941,143.102 145.449 C 142.721 146.104,142.018 146.849,141.539 147.105 C 136.676 149.708,132.392 159.074,132.515 166.833 C 132.588 171.426,132.155 172.785,129.337 176.793 C 126.836 180.351,126.417 185.199,127.996 192.315 L 128.633 195.185 131.118 195.185 L 133.603 195.185 133.839 193.467 C 133.968 192.522,134.074 190.558,134.074 189.104 C 134.074 152.397,162.298 120.626,202.593 111.972 C 213.307 109.671,236.090 112.500,249.510 117.796 C 277.365 128.791,296.395 157.031,298.813 190.960 L 299.074 194.630 301.204 194.741 C 303.172 194.843,303.333 194.791,303.333 194.053 C 303.333 193.452,303.494 193.311,303.981 193.484 C 304.404 193.634,304.329 193.477,303.765 193.035 C 302.371 191.942,302.117 185.488,303.371 183.034 C 304.152 181.506,304.259 180.796,304.259 177.148 L 304.259 173.000 302.910 171.593 C 300.032 168.592,297.361 162.383,296.485 156.657 C 295.532 150.424,294.706 148.042,293.253 147.336 C 290.610 146.052,284.969 140.418,284.664 138.758 C 282.886 129.085,281.186 126.532,276.481 126.465 C 273.255 126.418,271.248 125.496,266.953 122.088 C 262.158 118.283,261.612 117.737,260.243 115.370 C 257.897 111.317,256.823 110.746,252.030 111.002 C 245.785 111.335,237.459 109.478,236.583 107.558 C 235.293 104.726,227.699 102.438,224.259 103.844 M211.481 116.524 C 176.194 120.456,154.117 137.465,143.737 168.721 C 140.405 178.756,138.058 193.704,139.815 193.704 C 140.120 193.704,140.370 193.870,140.370 194.074 C 140.370 194.318,149.938 194.444,168.333 194.444 C 196.049 194.444,196.296 194.438,196.296 193.704 C 196.296 192.970,196.049 192.963,168.648 192.963 L 141.000 192.963 141.233 189.722 C 142.870 166.940,154.997 144.132,171.856 132.128 C 186.782 121.501,211.461 115.710,227.673 119.031 C 266.368 126.957,291.111 154.272,291.111 189.063 C 291.111 192.686,291.294 193.333,292.315 193.333 C 293.050 193.333,293.064 193.189,292.860 187.685 C 291.533 151.812,267.976 125.773,229.259 117.382 C 225.508 116.568,215.442 116.083,211.481 116.524 M188.667 130.148 C 185.896 132.919,187.751 137.407,191.667 137.407 C 193.153 137.407,193.592 137.223,194.667 136.148 C 197.437 133.378,195.582 128.889,191.667 128.889 C 190.181 128.889,189.742 129.073,188.667 130.148 M227.188 129.400 C 226.694 130.687,227.183 131.296,228.709 131.296 C 230.102 131.296,230.185 131.234,230.185 130.185 C 230.185 128.901,227.636 128.233,227.188 129.400 M209.458 136.577 C 203.189 146.999,209.314 159.052,222.963 163.151 C 234.470 166.607,238.148 169.198,238.148 173.849 C 238.148 176.100,238.585 176.214,240.162 174.371 C 245.048 168.663,240.553 163.039,227.795 158.895 C 217.818 155.654,213.154 151.807,211.044 145.079 C 210.224 142.464,210.046 136.483,210.749 135.170 C 211.739 133.320,210.804 134.339,209.458 136.577 M214.879 137.716 C 215.625 147.776,220.222 151.880,230.926 152.041 C 236.507 152.125,237.832 152.532,240.325 154.925 L 241.946 156.481 241.690 155.370 C 240.772 151.377,234.984 148.111,227.796 147.529 C 223.866 147.211,221.852 146.099,221.852 144.248 C 221.852 143.825,222.065 143.830,223.136 144.278 C 225.825 145.402,229.495 144.527,232.393 142.073 C 233.898 140.798,233.528 140.665,230.922 141.546 C 226.329 143.099,222.342 141.737,217.702 137.028 C 216.101 135.404,214.750 134.074,214.700 134.074 C 214.650 134.074,214.731 135.713,214.879 137.716 M202.823 138.899 C 202.120 139.516,200.992 140.891,200.317 141.955 C 199.641 143.018,198.953 143.946,198.789 144.017 C 195.533 145.415,194.062 149.862,195.555 153.792 C 195.963 154.864,196.296 155.769,196.296 155.805 C 196.296 155.840,195.719 156.059,195.013 156.292 C 189.855 157.994,187.680 163.986,190.333 169.185 C 191.071 170.632,195.843 175.392,196.198 175.036 C 196.306 174.929,197.103 175.256,197.970 175.764 C 203.353 178.919,215.860 181.188,222.429 180.201 L 224.259 179.926 220.852 179.064 C 213.014 177.082,206.841 172.476,203.754 166.308 C 201.619 162.042,202.180 161.713,206.392 164.765 C 212.068 168.879,217.128 171.118,220.715 171.105 L 222.407 171.099 219.282 169.421 C 205.352 161.943,199.371 151.347,203.501 141.466 C 205.251 137.279,205.141 136.864,202.823 138.899 M247.926 152.741 C 244.853 155.813,246.929 160.741,251.296 160.741 C 254.373 160.741,255.926 159.184,255.926 156.099 C 255.926 151.777,250.970 149.697,247.926 152.741 M176.111 167.373 C 172.769 168.853,171.881 174.276,174.543 176.938 C 175.907 178.302,176.000 178.333,178.704 178.333 C 181.408 178.333,181.500 178.302,182.864 176.938 C 187.322 172.481,181.904 164.806,176.111 167.373 M253.857 170.874 C 253.359 172.173,253.849 173.148,255.000 173.148 C 256.629 173.148,256.714 170.625,255.090 170.438 C 254.443 170.364,253.992 170.523,253.857 170.874 M247.778 177.037 C 247.319 177.496,247.037 178.272,247.037 179.074 C 247.037 179.877,247.319 180.653,247.778 181.111 C 248.236 181.570,249.012 181.852,249.815 181.852 C 250.617 181.852,251.393 181.570,251.852 181.111 C 252.310 180.653,252.593 179.877,252.593 179.074 C 252.593 178.272,252.310 177.496,251.852 177.037 C 251.393 176.578,250.617 176.296,249.815 176.296 C 249.012 176.296,248.236 176.578,247.778 177.037 M233.052 179.559 C 225.778 183.406,212.447 183.891,200.829 180.731 C 197.443 179.810,197.644 179.772,197.890 181.289 C 198.474 184.890,204.239 195.377,206.119 196.261 C 211.496 198.789,220.084 198.611,226.300 195.843 L 228.342 194.934 230.520 190.152 C 231.719 187.522,233.348 183.965,234.142 182.248 C 235.974 178.280,235.885 178.061,233.052 179.559 M179.822 184.676 C 178.825 185.673,179.213 187.868,180.463 188.305 C 182.243 188.928,183.497 188.211,183.638 186.490 C 183.819 184.284,181.375 183.123,179.822 184.676 M235.185 194.444 C 235.185 195.179,235.432 195.185,263.889 195.185 C 292.346 195.185,292.593 195.179,292.593 194.444 C 292.593 193.710,292.346 193.704,263.889 193.704 C 235.432 193.704,235.185 193.710,235.185 194.444 M288.595 235.340 C 274.897 262.160,248.183 276.667,212.493 276.667 C 188.410 276.667,158.940 258.988,145.678 236.585 L 143.547 232.985 140.940 233.239 C 139.506 233.378,137.888 233.499,137.343 233.506 L 136.353 233.519 137.158 234.974 C 138.175 236.813,141.671 240.633,142.609 240.931 C 143.468 241.204,146.358 246.389,148.077 250.741 C 149.857 255.249,154.251 259.263,159.209 260.909 C 161.494 261.668,167.146 266.583,169.876 270.185 C 172.429 273.553,176.098 275.185,181.119 275.185 C 182.881 275.185,183.356 275.340,184.282 276.218 C 191.075 282.663,202.714 285.045,210.794 281.644 C 214.294 280.171,217.120 280.441,222.076 282.722 C 228.216 285.548,232.887 284.954,236.943 280.833 C 239.685 278.047,247.236 276.285,253.858 276.885 C 257.743 277.237,258.887 276.489,261.557 271.850 C 262.952 269.426,270.268 263.424,273.519 262.037 C 274.472 261.630,275.908 261.416,277.551 261.436 C 281.597 261.486,283.640 258.779,285.037 251.518 C 285.817 247.467,288.481 244.133,293.508 240.916 C 294.994 239.966,295.511 239.378,295.834 238.273 C 296.581 235.714,296.754 234.172,296.324 233.906 C 295.894 233.640,290.953 232.221,290.468 232.224 C 290.312 232.225,289.469 233.627,288.595 235.340 M279.157 237.911 C 253.120 266.774,225.156 276.792,196.894 267.383 C 181.926 262.400,166.427 251.657,154.849 238.241 C 152.795 235.860,152.246 235.560,151.526 236.428 C 150.157 238.077,167.205 253.745,177.226 260.049 C 210.187 280.783,243.897 275.868,274.087 245.926 C 282.347 237.734,283.965 235.609,282.204 235.270 C 281.885 235.209,280.557 236.360,279.157 237.911 " stroke="none" fill="#6c44c4" fill-rule="evenodd"></path><path id="path2" d="M214.907 182.848 C 215.264 182.941,215.847 182.941,216.204 182.848 C 216.560 182.755,216.269 182.679,215.556 182.679 C 214.843 182.679,214.551 182.755,214.907 182.848 M217.690 182.855 C 218.150 182.943,218.817 182.940,219.171 182.847 C 219.525 182.754,219.148 182.682,218.333 182.686 C 217.519 182.690,217.229 182.766,217.690 182.855 " stroke="none" fill="#a184d7" fill-rule="evenodd"></path><path id="path3" d="M233.056 152.107 C 233.412 152.200,233.995 152.200,234.352 152.107 C 234.708 152.014,234.417 151.938,233.704 151.938 C 232.991 151.938,232.699 152.014,233.056 152.107 M208.704 161.852 C 209.499 162.667,210.234 163.333,210.336 163.333 C 210.437 163.333,209.870 162.667,209.074 161.852 C 208.278 161.037,207.544 160.370,207.442 160.370 C 207.340 160.370,207.908 161.037,208.704 161.852 " stroke="none" fill="#8965cc" fill-rule="evenodd"></path><path id="path4" d="M214.538 136.852 C 214.542 137.667,214.618 137.956,214.706 137.496 C 214.795 137.035,214.792 136.368,214.699 136.014 C 214.606 135.660,214.534 136.037,214.538 136.852 M202.328 147.963 C 202.331 148.981,202.403 149.354,202.488 148.791 C 202.573 148.228,202.571 147.395,202.483 146.939 C 202.395 146.484,202.325 146.944,202.328 147.963 " stroke="none" fill="#bca9e4" fill-rule="evenodd"></path></g></svg>