<?xml version="1.0" standalone="no"?>
<!DOCTYPE svg PUBLIC "-//W3C//DTD SVG 20010904//EN"
 "http://www.w3.org/TR/2001/REC-SVG-20010904/DTD/svg10.dtd">
<svg version="1.0" xmlns="http://www.w3.org/2000/svg"
 width="1080.000000pt" height="1080.000000pt" viewBox="0 0 1080.000000 1080.000000"
 preserveAspectRatio="xMidYMid meet">

<g transform="translate(0.000000,1080.000000) scale(0.100000,-0.100000)"
fill="#000000" stroke="none">
<path d="M5979 7955 c-123 -58 -198 -73 -259 -50 -148 54 -160 57 -285 52 -66
-3 -147 -10 -180 -16 -84 -16 -195 -73 -263 -135 l-57 -53 -80 -5 c-95 -7
-223 -48 -245 -79 -84 -118 -256 -280 -320 -300 -63 -20 -158 -79 -218 -134
-47 -43 -64 -67 -82 -117 -39 -111 -131 -278 -160 -293 -43 -22 -123 -117
-162 -191 -64 -123 -81 -192 -83 -339 -1 -143 -8 -166 -83 -268 -19 -27 -41
-65 -48 -85 -19 -52 -17 -180 3 -299 l17 -103 37 0 c20 0 51 -3 68 -6 l31 -6
0 103 c0 478 171 976 457 1329 75 92 234 251 328 326 286 228 691 417 1061
495 168 35 518 25 802 -22 548 -91 999 -351 1320 -761 268 -343 467 -885 499
-1361 6 -94 7 -98 27 -93 12 3 35 6 52 6 l30 0 -12 73 c-20 110 -17 181 8 235
25 55 36 146 26 220 -5 41 -14 62 -41 91 -79 87 -139 228 -168 390 -34 198
-50 246 -82 255 -29 8 -147 109 -195 167 -32 40 -41 61 -56 135 -21 110 -59
196 -102 233 -29 26 -39 29 -101 28 -84 -1 -148 30 -271 128 -113 92 -141 121
-184 193 -53 89 -82 104 -188 96 -57 -4 -120 0 -192 10 -162 25 -204 40 -251
92 -57 62 -133 96 -227 101 -72 4 -79 2 -171 -42z"/>
<path d="M5755 7649 c-441 -34 -834 -164 -1135 -377 -118 -83 -345 -308 -427
-422 -243 -341 -380 -732 -428 -1217 -5 -53 -3 -63 10 -63 8 0 15 -4 15 -10 0
-7 258 -10 755 -10 748 0 755 0 755 20 0 20 -7 20 -750 20 l-750 0 0 38 c0
125 64 434 130 625 84 247 203 468 347 647 87 107 253 263 363 342 314 223
734 355 1192 375 158 7 226 -1 408 -43 674 -158 1192 -541 1440 -1067 117
-248 190 -575 190 -848 0 -74 1 -79 21 -79 21 0 21 2 14 118 -30 510 -167 884
-447 1217 -290 346 -756 602 -1292 711 -144 29 -252 36 -411 23z"/>
<path d="M5135 7311 c-43 -19 -70 -60 -70 -107 0 -36 6 -49 33 -76 27 -27 40
-33 77 -33 37 0 50 6 77 33 27 27 33 40 33 77 0 36 -6 50 -30 75 -33 33 -85
46 -120 31z"/>
<path d="M6148 7309 c-25 -14 -22 -37 6 -50 46 -21 91 27 47 51 -24 12 -31 12
-53 -1z"/>
<path d="M5803 7080 c10 -193 79 -300 234 -361 48 -19 81 -23 196 -26 154 -3
183 -11 246 -68 42 -39 51 -34 27 13 -48 92 -188 157 -381 177 -77 8 -119 25
-135 54 -14 26 -2 54 19 45 9 -4 41 -9 72 -11 62 -6 143 22 176 60 18 20 17
20 -2 13 -86 -34 -159 -30 -250 14 -53 25 -140 101 -190 165 -15 18 -16 13
-12 -75z"/>
<path d="M5663 7127 c-127 -187 -112 -377 41 -532 108 -109 235 -183 381 -221
233 -62 361 -171 343 -294 -6 -41 4 -38 45 13 48 59 57 79 57 128 0 116 -125
210 -395 296 -197 63 -309 137 -386 255 -53 83 -72 164 -67 287 2 56 4 101 3
101 0 0 -10 -15 -22 -33z"/>
<path d="M5485 7048 c-15 -12 -45 -48 -66 -80 -21 -33 -53 -69 -71 -81 -74
-50 -97 -148 -59 -246 l20 -49 -54 -26 c-235 -116 -170 -387 128 -530 101 -49
208 -79 337 -95 100 -13 297 -13 325 -1 18 8 17 9 -7 9 -43 1 -187 50 -258 87
-99 52 -182 124 -238 208 -95 143 -92 198 7 122 146 -113 281 -177 386 -183
l70 -4 -74 41 c-117 65 -210 133 -283 207 -84 85 -98 104 -135 178 -72 144
-69 259 12 448 10 23 -7 22 -40 -5z"/>
<path d="M6730 6693 c-92 -47 -87 -180 7 -220 47 -19 98 -9 134 26 97 97 -19
257 -141 194z"/>
<path d="M4776 6280 c-42 -13 -85 -58 -97 -102 -39 -148 133 -256 247 -156 62
55 68 150 12 214 -41 46 -100 62 -162 44z"/>
<path d="M6860 6180 c-13 -24 2 -60 25 -60 8 0 19 9 25 20 13 24 -2 60 -25 60
-8 0 -19 -9 -25 -20z"/>
<path d="M6711 6028 c-51 -27 -47 -108 5 -129 56 -21 113 28 98 85 -11 45 -61
66 -103 44z"/>
<path d="M6315 5964 c-48 -29 -167 -69 -255 -85 -155 -29 -440 -9 -644 45 -47
13 -86 22 -86 20 0 -10 79 -182 133 -291 l66 -131 57 -22 c93 -34 151 -43 258
-37 105 5 184 23 266 58 l48 20 101 221 c56 122 100 222 99 224 -2 1 -21 -8
-43 -22z"/>
<path d="M4860 5810 c-11 -11 -20 -29 -20 -40 0 -26 34 -60 60 -60 26 0 60 34
60 60 0 26 -34 60 -60 60 -11 0 -29 -9 -40 -20z"/>
<path d="M6350 5550 c0 -20 7 -20 775 -20 768 0 775 0 775 20 0 20 -7 20 -775
20 -768 0 -775 0 -775 -20z"/>
<path d="M7796 4434 c-54 -105 -172 -280 -257 -381 -294 -346 -700 -576 -1184
-672 -207 -41 -345 -54 -590 -55 -198 -1 -217 1 -328 27 -306 73 -597 199
-857 372 -270 180 -506 427 -657 688 l-45 77 -71 -1 c-40 0 -80 -4 -90 -7 -16
-7 -15 -11 9 -47 37 -56 72 -92 120 -126 34 -23 52 -50 102 -151 33 -68 66
-142 73 -166 9 -33 29 -58 76 -101 56 -52 93 -74 249 -148 45 -21 215 -183
258 -247 33 -47 48 -59 105 -82 48 -19 91 -28 156 -32 l90 -5 62 -57 c82 -75
165 -114 297 -139 161 -31 271 -24 387 24 96 41 183 29 324 -43 60 -31 79 -36
135 -36 92 1 172 34 232 96 27 28 65 55 90 64 75 26 208 44 332 44 149 0 166
9 227 110 33 56 64 90 143 156 135 113 216 154 306 154 53 0 73 4 94 21 40 31
75 109 101 225 13 57 33 117 44 132 32 45 146 148 196 177 39 23 47 34 61 81
22 77 18 85 -46 101 -112 29 -101 33 -144 -53z"/>
<path d="M7501 4325 c-168 -185 -357 -351 -557 -488 -492 -338 -1012 -436
-1543 -291 -276 75 -593 245 -860 462 -103 84 -301 275 -374 361 -33 39 -50
52 -62 47 -14 -5 -12 -12 16 -49 57 -73 300 -309 405 -393 548 -439 1131 -609
1697 -493 439 89 899 377 1298 814 108 118 124 144 89 145 -3 0 -52 -52 -109
-115z"/>
</g>
</svg>
