<?xml version="1.0" standalone="no"?>
<!DOCTYPE svg PUBLIC "-//W3C//DTD SVG 20010904//EN"
 "http://www.w3.org/TR/2001/REC-SVG-20010904/DTD/svg10.dtd">
<svg version="1.0" xmlns="http://www.w3.org/2000/svg"
 width="500.000000pt" height="500.000000pt" viewBox="0 0 500.000000 500.000000"
 preserveAspectRatio="xMidYMid meet">

<g transform="translate(0.000000,500.000000) scale(0.100000,-0.100000)"
fill="#000000" stroke="none">
<path d="M2755 3674 c-59 -28 -81 -29 -135 -8 -32 13 -61 15 -123 11 -87 -5
-134 -21 -182 -62 -17 -14 -43 -25 -60 -25 -51 -1 -107 -27 -134 -62 -42 -54
-110 -112 -147 -125 -53 -19 -112 -72 -125 -112 -18 -56 -61 -129 -85 -141
-25 -14 -80 -102 -94 -151 -6 -19 -10 -61 -10 -95 0 -51 -5 -68 -30 -105 -27
-40 -30 -52 -30 -124 0 -90 4 -100 41 -107 l26 -5 5 96 c22 421 282 753 708
906 108 38 161 47 290 46 157 -2 265 -16 379 -52 307 -98 527 -324 634 -654
28 -86 57 -237 57 -297 0 -33 3 -38 23 -38 21 0 22 4 23 73 1 39 5 95 9 124 7
49 6 55 -33 113 -26 39 -45 80 -52 118 -23 119 -32 152 -44 152 -6 0 -34 24
-62 53 -42 42 -53 62 -63 108 -16 76 -34 99 -77 99 -65 0 -133 49 -242 175
-20 23 -28 26 -60 20 -56 -9 -180 19 -211 49 -58 53 -115 59 -196 20z"/>
<path d="M2683 3533 c26 -2 67 -2 90 0 23 2 2 3 -48 3 -49 0 -68 -1 -42 -3z"/>
<path d="M2475 3511 c-77 -20 -128 -39 -105 -40 8 0 34 6 58 14 24 9 78 22
120 29 57 11 66 14 37 14 -22 0 -71 -8 -110 -17z"/>
<path d="M2855 3519 c22 -6 76 -21 119 -35 43 -13 81 -23 83 -20 8 8 -185 66
-215 65 -22 -1 -20 -3 13 -10z"/>
<path d="M2259 3433 c-201 -100 -343 -257 -432 -478 -51 -126 -97 -362 -73
-377 18 -12 696 -10 696 2 0 6 -122 10 -345 10 l-345 0 0 28 c0 102 68 338
127 439 105 183 211 284 392 374 42 21 71 38 65 38 -6 1 -45 -16 -85 -36z"/>
<path d="M3150 3414 c47 -25 97 -52 112 -60 40 -22 164 -140 212 -203 24 -31
60 -87 80 -126 20 -38 34 -59 30 -45 -4 14 -25 59 -48 99 -44 81 -167 214
-247 268 -61 42 -194 113 -211 113 -7 0 25 -21 72 -46z"/>
<path d="M2372 3379 c-19 -7 -23 -15 -20 -46 3 -36 5 -38 41 -41 32 -3 38 0
47 22 11 31 4 53 -21 66 -20 11 -17 12 -47 -1z"/>
<path d="M2845 3380 c-8 -13 15 -24 27 -12 6 6 4 11 -6 15 -8 3 -18 2 -21 -3z"/>
<path d="M2690 3270 c1 -103 78 -170 198 -170 38 0 75 -6 95 -16 l32 -17 -24
26 c-27 30 -99 57 -148 57 -44 0 -73 16 -73 39 0 16 6 18 39 14 21 -3 47 -1
56 4 14 8 9 10 -22 10 -43 0 -111 37 -137 75 -16 22 -16 21 -16 -22z"/>
<path d="M2606 3266 c-23 -50 -23 -114 0 -161 24 -51 116 -122 184 -141 125
-37 190 -84 190 -141 1 -31 40 28 40 60 0 50 -60 93 -193 137 -78 25 -142 70
-171 119 -11 19 -22 63 -26 100 l-6 66 -18 -39z"/>
<path d="M2540 3262 c0 -4 -20 -30 -45 -57 -51 -57 -63 -86 -46 -121 15 -34
14 -44 -5 -44 -29 0 -74 -56 -74 -92 0 -105 133 -186 320 -194 l95 -5 -62 23
c-34 13 -82 39 -106 59 -44 37 -97 122 -84 135 3 4 22 -5 40 -19 50 -38 151
-87 178 -87 19 0 10 8 -36 36 -70 42 -151 123 -171 170 -19 44 -18 138 1 174
9 17 11 30 5 30 -5 0 -10 -4 -10 -8z"/>
<path d="M3102 3088 c-37 -37 12 -113 57 -88 35 18 45 48 26 76 -17 26 -62 33
-83 12z"/>
<path d="M3600 2916 c0 -5 7 -35 15 -68 9 -32 20 -85 24 -116 l9 -57 1 45 c1
42 -30 185 -43 198 -3 3 -6 2 -6 -2z"/>
<path d="M2202 2900 c-52 -22 -47 -97 8 -120 28 -12 34 -11 58 7 30 23 40 69
20 95 -17 22 -56 30 -86 18z"/>
<path d="M3176 2862 c-3 -6 -1 -14 5 -17 15 -10 25 3 12 16 -7 7 -13 7 -17 1z"/>
<path d="M3097 2776 c-10 -26 4 -47 27 -44 15 2 21 10 21 28 0 29 -38 41 -48
16z"/>
<path d="M2913 2755 c-12 -8 -50 -22 -85 -31 -72 -19 -217 -14 -305 10 -29 8
-53 12 -53 10 0 -21 95 -186 112 -196 34 -19 184 -16 231 5 31 13 42 27 68 84
31 69 50 112 57 126 5 11 -1 9 -25 -8z"/>
<path d="M2250 2685 c-10 -11 -10 -19 -2 -27 15 -15 44 -2 40 19 -4 23 -22 27
-38 8z"/>
<path d="M3652 2620 c0 -19 2 -27 5 -17 2 9 2 25 0 35 -3 9 -5 1 -5 -18z"/>
<path d="M2940 2570 c0 -6 125 -10 355 -10 230 0 355 4 355 10 0 6 -125 10
-355 10 -230 0 -355 -4 -355 -10z"/>
<path d="M3609 2048 c-64 -125 -193 -268 -308 -343 -146 -93 -320 -148 -521
-164 -151 -12 -204 -8 -326 28 -273 79 -502 246 -635 464 -24 39 -34 47 -58
47 -49 0 -47 -19 4 -69 43 -41 95 -127 95 -157 0 -20 63 -74 115 -99 52 -26
100 -66 147 -123 31 -37 82 -62 129 -62 19 0 45 -11 68 -29 65 -51 101 -64
188 -69 62 -3 94 0 131 13 47 17 52 17 98 1 27 -9 63 -22 80 -28 45 -15 103
-2 134 32 33 36 85 50 183 50 75 0 80 2 107 31 16 16 32 38 35 47 5 16 52 54
119 97 17 11 51 22 76 25 39 4 47 9 62 40 9 19 20 54 23 77 7 42 33 76 108
140 46 39 48 67 6 82 -18 6 -33 11 -35 11 -2 0 -13 -19 -25 -42z"/>
<path d="M3415 1942 c-281 -277 -578 -383 -874 -312 -98 24 -118 20 -34 -6 46
-15 90 -19 213 -19 143 1 162 3 240 29 144 47 264 120 414 251 62 54 166 165
154 165 -2 0 -53 -49 -113 -108z"/>
<path d="M1929 2003 c55 -72 249 -231 339 -277 53 -27 37 -10 -28 29 -80 48
-157 111 -259 209 -58 56 -74 68 -52 39z"/>
<path d="M2335 1691 c17 -10 41 -22 55 -25 14 -4 5 4 -20 18 -53 29 -79 34
-35 7z"/>
</g>
</svg>
