<svg id="svg" version="1.1" xmlns="http://www.w3.org/2000/svg" xmlns:xlink="http://www.w3.org/1999/xlink" width="400" height="400" viewBox="0, 0, 400,400"><g id="svgg"><path id="path0" d="M207.758 134.381 C 205.568 135.775,205.028 136.497,204.976 138.101 C 204.952 138.840,204.493 140.461,203.955 141.704 C 199.833 151.236,206.256 162.324,219.880 169.199 C 223.368 170.959,223.483 171.646,220.274 171.560 C 216.684 171.463,212.160 169.433,206.521 165.387 C 202.508 162.508,202.361 162.557,204.163 166.177 C 207.214 172.309,213.169 176.638,221.455 178.749 C 227.318 180.243,226.660 180.565,217.837 180.520 C 209.099 180.476,201.536 178.822,197.663 176.109 C 195.310 174.462,194.334 176.792,195.916 180.278 C 196.550 181.675,197.400 182.591,196.933 181.373 C 196.333 179.810,197.608 179.472,201.011 180.291 C 213.590 183.320,225.217 182.994,232.278 179.416 C 235.499 177.784,235.917 177.689,236.224 178.520 C 236.486 179.226,236.534 179.218,237.526 178.298 C 238.398 177.489,238.482 177.254,238.074 176.762 C 237.778 176.404,237.641 175.488,237.719 174.385 C 238.026 170.042,233.880 166.681,225.326 164.337 C 208.972 159.856,201.638 146.790,209.390 135.944 C 211.252 133.339,211.254 133.333,210.280 133.333 C 209.798 133.333,208.663 133.805,207.758 134.381 M211.146 135.183 C 208.778 146.224,214.110 153.816,227.337 158.236 C 235.391 160.928,241.852 164.899,241.852 167.158 C 241.852 167.967,242.948 168.248,243.230 167.512 C 244.022 165.448,243.321 156.553,242.394 156.908 C 242.081 157.028,241.266 156.488,240.397 155.584 C 238.054 153.145,236.461 152.611,231.481 152.596 C 220.305 152.563,215.080 147.950,214.491 137.593 L 214.259 133.519 212.905 133.406 C 211.554 133.293,211.551 133.296,211.146 135.183 M264.321 196.173 C 264.185 196.309,264.073 197.767,264.073 199.414 C 264.072 201.060,263.657 206.741,263.150 212.037 C 262.242 221.525,261.996 228.617,262.458 231.985 C 262.751 234.123,263.443 234.220,266.694 232.579 C 269.422 231.202,269.569 230.861,268.484 228.419 C 267.311 225.777,267.366 219.004,268.664 206.228 C 269.195 200.995,269.630 196.537,269.630 196.320 C 269.630 195.889,264.741 195.753,264.321 196.173 M170.370 198.765 C 165.499 199.612,160.210 201.497,160.076 202.434 C 159.853 203.987,160.634 205.185,161.868 205.185 C 163.582 205.185,163.317 206.800,161.575 206.968 C 159.461 207.172,159.313 210.299,161.389 210.910 L 162.593 211.264 162.598 219.984 C 162.605 230.127,162.499 229.779,165.520 229.561 C 168.768 229.326,168.709 229.471,168.206 222.885 C 167.527 213.997,167.587 212.486,168.611 212.789 C 173.626 214.268,181.109 219.955,185.166 225.370 C 186.517 227.174,186.514 227.126,185.370 228.809 C 183.403 231.704,185.988 233.652,196.296 237.044 C 219.659 244.730,237.387 240.944,237.404 228.264 L 237.407 225.602 238.673 225.807 C 241.681 226.296,248.241 224.331,253.099 221.486 C 255.020 220.362,255.595 220.156,255.447 220.647 C 255.340 221.004,254.713 222.834,254.056 224.715 C 252.585 228.918,253.281 229.989,257.491 229.998 C 259.832 230.003,262.750 217.309,261.697 211.697 C 260.798 206.906,250.671 204.593,240.000 206.743 L 237.593 207.228 237.593 209.447 C 237.593 211.957,238.281 212.366,241.104 211.534 C 241.821 211.322,243.324 211.055,244.444 210.940 L 246.481 210.731 245.165 211.247 C 240.960 212.895,237.427 215.342,236.144 217.494 L 235.243 219.004 234.636 217.558 C 233.827 215.633,232.977 211.979,232.963 210.370 C 232.945 208.306,232.642 208.098,229.831 208.222 L 227.321 208.333 226.689 210.370 C 225.054 215.640,221.544 220.741,219.553 220.741 C 216.879 220.741,217.691 215.023,220.908 211.200 C 222.280 209.570,222.148 208.376,220.470 207.236 C 214.787 203.374,210.232 218.667,215.599 223.586 C 219.018 226.721,224.679 225.311,228.152 220.461 L 229.575 218.474 230.380 220.255 C 234.224 228.770,233.345 232.302,226.885 234.291 C 219.812 236.467,204.439 234.022,193.333 228.954 C 189.653 227.275,189.325 226.951,190.516 226.171 C 191.597 225.463,191.771 224.267,190.928 223.336 C 190.480 222.841,190.885 222.896,193.058 223.625 C 196.641 224.828,203.320 224.687,206.852 223.334 C 215.614 219.977,214.129 210.200,204.605 208.541 C 193.655 206.635,185.136 212.377,187.985 219.744 C 188.127 220.112,187.264 219.467,186.066 218.309 C 182.940 215.288,179.861 213.067,176.593 211.477 L 173.742 210.089 176.037 209.638 C 183.629 208.147,186.667 206.268,186.667 203.062 C 186.667 198.676,180.393 197.022,170.370 198.765 M179.961 203.171 C 180.440 203.650,173.538 205.662,169.823 206.126 L 167.778 206.382 167.778 205.069 C 167.778 203.667,168.433 203.384,172.963 202.828 C 174.390 202.653,179.704 202.914,179.961 203.171 M204.604 214.271 C 206.529 215.235,206.963 215.977,206.311 217.194 C 204.454 220.664,194.350 220.666,193.479 217.197 C 192.720 214.173,200.382 212.157,204.604 214.271 M251.230 215.534 C 248.068 218.540,240.741 222.197,240.741 220.770 C 240.741 219.551,251.209 213.394,253.333 213.362 C 253.435 213.360,252.489 214.338,251.230 215.534 M186.327 244.907 C 186.153 245.366,186.138 245.975,186.293 246.261 C 186.475 246.596,185.934 247.724,184.769 249.442 C 181.780 253.846,183.036 255.219,190.599 255.817 L 193.236 256.025 193.197 257.491 C 193.138 259.759,195.967 260.873,200.109 260.211 C 201.356 260.012,201.574 260.055,201.204 260.425 C 199.698 261.933,202.034 264.425,203.978 263.385 C 204.585 263.060,204.644 263.152,204.518 264.235 C 204.388 265.347,204.476 265.469,205.568 265.688 C 207.945 266.163,208.007 266.115,208.445 263.476 C 209.020 260.004,209.044 260.006,214.846 264.163 C 217.913 266.359,219.209 266.732,220.463 265.781 C 221.360 265.100,221.274 263.907,220.278 263.213 C 219.485 262.660,219.481 262.630,220.185 262.607 C 220.593 262.593,221.269 262.490,221.688 262.378 C 222.368 262.195,222.434 262.311,222.299 263.466 C 222.112 265.066,223.599 265.420,229.040 265.071 C 242.446 264.211,251.978 254.536,243.576 250.318 C 242.730 249.893,241.506 249.147,240.858 248.661 C 238.460 246.864,236.852 247.834,237.229 250.851 C 237.395 252.181,237.328 253.159,237.034 253.709 C 236.401 254.892,235.980 254.034,236.207 252.021 C 236.383 250.458,235.075 249.246,234.179 250.142 C 234.053 250.268,233.661 250.111,233.308 249.792 C 232.333 248.910,230.201 249.460,228.732 250.972 C 228.064 251.660,227.173 252.222,226.752 252.222 C 225.416 252.222,224.815 252.645,224.815 253.583 C 224.815 254.323,224.677 254.451,224.080 254.261 C 223.146 253.965,219.091 254.993,217.506 255.928 C 216.303 256.638,216.296 256.638,216.296 255.889 C 216.296 253.614,215.392 253.325,212.406 254.646 L 210.275 255.588 210.527 254.739 C 210.666 254.271,210.876 253.264,210.994 252.500 L 211.209 251.111 209.530 251.111 L 207.852 251.111 207.199 253.981 C 206.687 256.227,206.494 256.651,206.312 255.930 C 205.889 254.254,201.191 252.222,197.740 252.222 C 196.971 252.222,196.959 252.182,197.535 251.545 C 199.233 249.669,197.732 247.974,192.417 245.764 C 187.791 243.841,186.785 243.699,186.327 244.907 M190.385 251.859 C 191.853 252.608,192.425 253.545,191.204 253.200 C 190.847 253.099,189.849 252.907,188.986 252.773 C 187.581 252.555,187.456 252.454,187.795 251.820 C 188.272 250.929,188.570 250.934,190.385 251.859 M233.947 256.615 C 235.933 258.345,239.086 257.227,240.327 254.353 L 240.926 252.965 242.130 253.699 C 246.118 256.132,236.152 261.852,227.926 261.852 C 226.442 261.852,225.141 261.710,225.033 261.536 C 224.724 261.034,226.617 260.344,227.614 260.594 C 229.960 261.183,230.456 260.609,230.176 257.626 C 229.896 254.635,230.246 253.494,231.598 252.990 C 232.328 252.718,232.434 252.838,232.676 254.214 C 232.846 255.182,233.312 256.061,233.947 256.615 M225.920 256.759 C 225.923 256.912,225.759 257.037,225.556 257.037 C 225.352 257.037,225.188 256.662,225.191 256.204 C 225.196 255.409,225.904 255.947,225.920 256.759 M215.261 258.241 C 214.914 258.903,214.607 259.495,214.579 259.557 C 214.551 259.619,213.995 259.346,213.345 258.950 L 212.161 258.230 213.766 257.663 C 215.969 256.884,215.971 256.885,215.261 258.241 " stroke="none" fill="#fbfbfb" fill-rule="evenodd"></path><path id="path1" d="M224.440 102.889 C 224.137 102.983,222.312 103.814,220.385 104.737 C 216.952 106.381,211.852 107.290,211.852 106.258 C 211.852 106.075,211.644 105.925,211.389 105.924 C 211.134 105.922,210.495 105.696,209.968 105.421 C 205.698 103.193,194.517 103.947,188.797 106.849 C 186.123 108.206,185.900 108.360,183.650 110.410 C 182.325 111.617,181.918 111.769,179.454 111.977 C 175.751 112.290,171.183 113.824,170.000 115.152 C 168.303 117.058,166.853 119.071,166.955 119.379 C 167.010 119.547,166.909 119.594,166.730 119.483 C 166.282 119.207,164.740 120.906,165.089 121.291 C 165.244 121.461,165.173 121.487,164.933 121.349 C 164.692 121.212,164.275 121.394,164.007 121.756 C 163.738 122.117,162.602 123.162,161.481 124.077 C 160.361 124.992,159.389 125.866,159.321 126.019 C 159.253 126.171,158.809 126.296,158.334 126.296 C 157.349 126.296,153.540 128.249,151.833 129.630 C 148.280 132.502,147.868 132.990,147.064 135.275 C 146.382 137.216,144.564 141.067,142.295 145.378 C 142.029 145.883,141.647 146.296,141.446 146.296 C 140.596 146.296,136.667 150.205,136.667 151.050 C 136.667 151.237,136.433 151.585,136.147 151.822 C 135.537 152.328,133.580 156.217,133.580 156.922 C 133.580 157.189,133.459 157.407,133.312 157.407 C 132.604 157.407,131.702 162.935,131.743 167.022 C 131.783 171.101,131.302 173.146,129.998 174.443 C 126.573 177.849,125.481 184.841,127.194 192.407 C 127.993 195.936,127.831 195.805,131.513 195.894 L 134.444 195.964 134.463 194.741 C 134.589 186.391,135.807 177.384,137.959 168.889 C 138.244 167.767,140.310 161.904,140.848 160.693 C 141.393 159.465,141.926 158.142,142.022 157.778 C 142.091 157.516,143.772 154.406,144.324 153.519 C 144.578 153.111,144.998 152.361,145.259 151.852 C 145.519 151.343,145.942 150.706,146.199 150.437 C 146.456 150.167,146.667 149.709,146.667 149.418 C 146.667 149.127,146.843 148.889,147.059 148.889 C 147.275 148.889,147.359 148.740,147.246 148.557 C 147.134 148.375,147.290 148.130,147.595 148.013 C 147.899 147.897,148.148 147.546,148.148 147.234 C 148.148 146.922,148.292 146.667,148.468 146.667 C 148.644 146.667,149.269 145.967,149.857 145.113 C 150.445 144.258,151.298 143.154,151.752 142.659 C 152.207 142.164,152.473 141.587,152.343 141.378 C 152.214 141.168,152.282 141.104,152.494 141.235 C 152.707 141.367,153.303 140.921,153.819 140.244 C 154.594 139.228,156.869 136.949,160.718 133.333 C 161.043 133.028,162.973 131.528,165.007 130.000 C 167.040 128.472,168.837 127.014,169.000 126.759 C 169.163 126.505,169.482 126.296,169.708 126.296 C 170.211 126.296,173.575 124.221,174.722 123.203 C 175.181 122.796,175.556 122.571,175.556 122.703 C 175.556 122.835,177.514 121.972,179.907 120.786 C 185.720 117.907,187.666 117.037,188.298 117.037 C 188.589 117.037,188.883 116.902,188.951 116.737 C 189.064 116.462,189.894 116.181,195.370 114.560 C 196.389 114.258,198.639 113.688,200.370 113.293 C 202.102 112.898,204.185 112.422,205.000 112.234 C 205.815 112.046,209.565 111.955,213.333 112.030 C 220.011 112.164,221.056 112.236,227.222 112.989 C 228.852 113.188,230.769 113.419,231.481 113.503 C 232.194 113.586,232.778 113.678,232.778 113.707 C 232.778 113.771,233.474 113.929,235.087 114.230 C 237.817 114.739,242.225 115.963,245.054 116.998 C 246.713 117.605,248.172 118.001,248.295 117.878 C 248.418 117.755,248.519 117.815,248.519 118.012 C 248.519 118.209,249.144 118.587,249.907 118.853 C 251.420 119.379,258.218 122.646,258.519 122.991 C 258.620 123.108,259.454 123.608,260.370 124.102 C 261.287 124.596,262.120 125.091,262.222 125.203 C 262.746 125.777,264.815 127.047,264.815 126.795 C 264.815 126.634,265.074 126.872,265.391 127.325 C 265.708 127.778,266.118 128.148,266.300 128.148 C 266.483 128.148,267.031 128.523,267.517 128.981 C 268.004 129.440,269.053 130.380,269.849 131.072 C 273.827 134.526,276.547 137.434,280.551 142.513 C 280.757 142.775,281.134 143.221,281.389 143.505 C 281.644 143.789,281.852 144.200,281.852 144.418 C 281.852 144.636,281.992 144.815,282.164 144.815 C 282.336 144.815,282.862 145.565,283.333 146.481 C 283.805 147.398,284.331 148.148,284.503 148.148 C 284.674 148.148,284.815 148.386,284.815 148.677 C 284.815 148.968,285.023 149.427,285.278 149.696 C 285.532 149.965,286.642 151.983,287.743 154.181 C 288.845 156.378,289.889 158.265,290.064 158.373 C 290.239 158.481,290.310 158.687,290.221 158.831 C 290.133 158.974,290.462 159.921,290.953 160.935 C 291.443 161.948,291.847 163.069,291.848 163.426 C 291.850 163.782,291.991 164.074,292.160 164.074 C 292.330 164.074,292.470 164.282,292.472 164.537 C 292.473 164.792,292.988 166.583,293.616 168.519 C 294.244 170.454,294.872 172.664,295.013 173.430 C 295.154 174.196,295.420 174.916,295.604 175.030 C 295.788 175.143,295.857 175.368,295.758 175.528 C 295.658 175.689,295.749 176.386,295.959 177.077 C 296.169 177.768,296.426 178.993,296.529 179.799 C 296.633 180.605,296.792 181.384,296.882 181.530 C 296.972 181.676,297.130 182.599,297.233 183.583 C 297.336 184.566,297.493 185.704,297.581 186.111 C 297.818 187.210,298.233 191.315,298.487 195.093 C 298.520 195.579,301.682 195.740,303.201 195.333 C 304.032 195.110,304.747 193.017,304.129 192.617 C 303.236 192.040,303.027 184.656,303.877 183.716 C 305.971 181.403,305.543 172.838,303.219 170.556 C 302.597 169.944,302.227 169.679,302.397 169.965 C 302.607 170.317,302.569 170.399,302.279 170.221 C 302.044 170.075,301.852 169.658,301.852 169.294 C 301.852 168.930,301.531 168.262,301.140 167.811 C 300.748 167.359,300.132 166.167,299.770 165.162 C 299.409 164.156,298.979 163.333,298.816 163.333 C 298.652 163.333,298.549 163.208,298.586 163.056 C 298.623 162.903,298.456 162.111,298.214 161.296 C 297.972 160.481,297.511 158.148,297.188 156.111 C 296.865 154.074,296.462 152.262,296.292 152.084 C 296.123 151.907,296.066 151.548,296.166 151.287 C 296.386 150.714,294.857 147.037,294.399 147.037 C 294.220 147.037,293.976 147.048,293.855 147.062 C 293.735 147.075,293.443 146.856,293.207 146.574 C 292.971 146.292,291.861 145.332,290.741 144.441 C 286.699 141.225,285.555 139.625,284.918 136.296 C 284.664 134.972,284.399 133.722,284.328 133.519 C 284.257 133.315,284.000 132.447,283.756 131.591 C 283.513 130.734,282.887 129.526,282.365 128.906 C 281.843 128.285,281.522 127.778,281.653 127.778 C 282.159 127.778,279.858 125.923,279.298 125.880 C 278.971 125.855,277.620 125.802,276.296 125.761 C 274.329 125.701,273.531 125.472,271.928 124.510 C 270.850 123.863,269.884 123.333,269.783 123.333 C 269.682 123.333,269.231 122.983,268.781 122.554 C 268.331 122.125,267.546 121.501,267.037 121.167 C 266.528 120.833,265.815 120.193,265.453 119.746 C 265.092 119.299,264.502 118.840,264.144 118.726 C 263.498 118.521,260.741 115.118,260.741 114.526 C 260.741 113.908,258.854 111.683,257.725 110.968 C 256.717 110.329,255.834 110.224,250.968 110.161 C 247.889 110.121,244.870 109.985,244.259 109.858 C 241.666 109.321,237.063 107.665,237.263 107.342 C 237.524 106.919,236.362 105.556,235.741 105.556 C 235.498 105.556,234.997 105.220,234.626 104.811 C 233.267 103.309,226.946 102.116,224.440 102.889 M209.815 115.966 C 201.824 116.748,187.723 120.059,186.130 121.528 C 185.936 121.706,185.478 121.852,185.111 121.852 C 184.744 121.852,184.444 122.028,184.444 122.244 C 184.444 122.460,184.309 122.553,184.144 122.451 C 183.795 122.235,179.183 124.359,178.847 124.890 C 178.723 125.087,178.556 125.228,178.477 125.204 C 178.020 125.062,175.953 126.062,175.782 126.507 C 175.670 126.799,175.240 127.037,174.826 127.037 C 174.413 127.037,174.074 127.204,174.074 127.407 C 174.074 127.611,173.832 127.778,173.537 127.778 C 173.241 127.778,172.852 128.043,172.670 128.367 C 172.489 128.690,172.233 128.945,172.100 128.932 C 171.525 128.877,170.763 129.365,170.950 129.668 C 171.063 129.851,170.853 130.003,170.485 130.006 C 170.116 130.009,169.273 130.468,168.610 131.024 C 167.948 131.581,166.792 132.537,166.042 133.148 C 164.328 134.544,159.100 139.769,157.490 141.696 C 156.822 142.495,156.030 143.412,155.731 143.735 C 155.431 144.057,155.185 144.440,155.185 144.584 C 155.185 144.729,154.769 145.296,154.259 145.846 C 153.750 146.395,153.333 147.054,153.333 147.311 C 153.333 147.568,153.167 147.778,152.963 147.778 C 152.759 147.778,152.593 148.028,152.593 148.333 C 152.593 148.639,152.426 148.889,152.222 148.889 C 152.019 148.889,151.852 149.139,151.852 149.444 C 151.852 149.750,151.696 150.000,151.506 150.000 C 151.316 150.000,151.044 150.375,150.901 150.833 C 150.758 151.292,150.526 151.750,150.386 151.852 C 150.048 152.098,145.604 161.141,145.473 161.852 C 145.417 162.157,145.262 162.491,145.130 162.593 C 144.997 162.694,144.831 163.111,144.759 163.519 C 144.688 163.926,144.543 164.343,144.437 164.444 C 144.236 164.639,142.612 169.190,142.436 170.054 C 142.380 170.330,142.234 170.806,142.112 171.111 C 139.891 176.658,137.575 194.444,139.074 194.444 C 139.380 194.444,139.630 194.611,139.630 194.815 C 139.630 195.059,149.444 195.185,168.333 195.185 L 197.037 195.185 197.037 193.704 L 197.037 192.222 169.406 192.222 L 141.775 192.222 141.978 189.537 C 142.215 186.405,143.011 181.763,144.100 177.154 C 144.525 175.358,144.926 173.635,144.991 173.325 C 145.057 173.015,145.564 171.432,146.120 169.807 C 146.675 168.182,147.136 166.644,147.145 166.389 C 147.153 166.134,147.266 165.926,147.396 165.926 C 147.525 165.926,147.945 165.051,148.327 163.981 C 148.710 162.912,150.034 160.068,151.271 157.661 C 152.507 155.254,153.683 152.962,153.884 152.568 C 154.085 152.174,154.377 151.852,154.532 151.852 C 154.688 151.852,154.815 151.602,154.815 151.296 C 154.815 150.991,154.953 150.741,155.123 150.741 C 155.292 150.741,155.667 150.282,155.956 149.722 C 156.538 148.594,156.643 148.446,157.991 146.852 C 159.733 144.793,160.350 143.807,160.082 143.510 C 159.935 143.347,160.005 143.323,160.237 143.456 C 160.470 143.589,161.075 143.150,161.594 142.470 C 162.546 141.222,164.943 138.873,167.565 136.620 C 168.364 135.933,169.482 134.932,170.048 134.397 C 170.614 133.862,171.142 133.488,171.221 133.567 C 171.300 133.646,171.876 133.222,172.501 132.624 C 173.126 132.027,173.732 131.633,173.847 131.748 C 173.962 131.864,174.162 131.684,174.290 131.349 C 174.419 131.015,174.782 130.741,175.097 130.741 C 175.413 130.741,176.270 130.284,177.002 129.725 C 177.734 129.167,178.378 128.757,178.434 128.814 C 178.489 128.871,179.822 128.261,181.397 127.457 C 185.419 125.403,186.325 125.027,190.926 123.500 C 193.167 122.757,195.250 122.060,195.556 121.951 C 195.861 121.843,196.444 121.708,196.852 121.652 C 197.259 121.596,198.593 121.296,199.815 120.984 C 201.037 120.672,202.787 120.315,203.704 120.192 C 204.620 120.069,206.287 119.816,207.407 119.632 C 211.738 118.917,222.185 118.556,224.444 119.042 C 224.954 119.152,227.287 119.682,229.630 120.221 C 231.972 120.760,234.181 121.216,234.537 121.235 C 234.894 121.254,235.185 121.401,235.185 121.561 C 235.185 121.721,235.434 121.852,235.737 121.852 C 236.338 121.852,241.357 123.480,243.148 124.256 C 246.348 125.643,249.084 126.663,249.500 126.625 C 249.627 126.613,249.834 126.743,249.959 126.913 C 250.254 127.316,253.065 128.672,253.426 128.585 C 253.579 128.549,253.704 128.685,253.704 128.889 C 253.704 129.093,253.954 129.259,254.259 129.259 C 254.565 129.259,254.815 129.395,254.815 129.561 C 254.815 129.727,255.356 130.140,256.019 130.478 C 258.276 131.633,260.554 133.035,261.320 133.740 C 261.741 134.128,262.282 134.444,262.524 134.444 C 262.765 134.444,262.963 134.616,262.963 134.826 C 262.963 135.037,263.242 135.315,263.583 135.446 C 263.924 135.577,264.482 135.947,264.823 136.268 C 265.164 136.589,266.332 137.602,267.418 138.519 C 269.651 140.403,272.974 143.749,274.630 145.778 C 275.241 146.527,276.032 147.450,276.389 147.829 C 276.745 148.208,277.037 148.645,277.037 148.800 C 277.037 148.955,277.454 149.531,277.963 150.080 C 278.472 150.629,278.889 151.253,278.889 151.465 C 278.889 151.678,279.036 151.852,279.216 151.852 C 279.396 151.852,279.644 152.144,279.767 152.500 C 279.891 152.856,280.329 153.648,280.741 154.259 C 281.153 154.870,281.591 155.662,281.714 156.019 C 281.837 156.375,282.085 156.667,282.265 156.667 C 282.445 156.667,282.593 156.918,282.593 157.225 C 282.593 157.532,282.994 158.574,283.485 159.540 C 287.392 167.226,290.026 178.421,290.507 189.383 L 290.664 192.963 262.554 192.963 L 234.444 192.963 234.444 194.436 L 234.444 195.909 263.864 195.901 L 293.284 195.893 293.547 193.787 C 294.089 189.449,293.286 180.268,291.694 172.593 C 290.542 167.039,285.572 154.251,284.378 153.765 C 284.211 153.698,284.074 153.431,284.074 153.174 C 284.074 152.917,283.741 152.322,283.333 151.852 C 282.926 151.382,282.593 150.798,282.593 150.553 C 282.593 150.308,282.176 149.659,281.667 149.109 C 281.157 148.560,280.741 147.976,280.741 147.813 C 280.741 147.649,280.324 147.066,279.815 146.516 C 279.306 145.967,278.889 145.369,278.889 145.187 C 278.889 145.005,278.594 144.639,278.234 144.373 C 277.874 144.107,277.287 143.431,276.929 142.870 C 276.572 142.310,276.023 141.852,275.710 141.852 C 275.397 141.852,275.224 141.718,275.325 141.555 C 275.602 141.107,268.813 134.647,266.295 132.963 C 265.839 132.657,265.247 132.199,264.981 131.944 C 264.715 131.690,264.395 131.481,264.270 131.481 C 264.145 131.481,263.714 131.175,263.312 130.800 C 262.909 130.425,262.125 129.884,261.568 129.597 C 261.011 129.310,260.472 128.988,260.370 128.881 C 259.881 128.367,258.117 127.407,257.663 127.407 C 257.382 127.407,256.884 127.111,256.556 126.749 C 256.048 126.188,253.679 124.980,248.704 122.746 C 248.093 122.472,247.343 122.200,247.037 122.142 C 246.731 122.084,246.395 121.923,246.290 121.785 C 246.030 121.442,235.929 118.107,235.000 118.057 C 234.593 118.035,234.068 117.873,233.834 117.698 C 233.600 117.522,232.850 117.321,232.167 117.251 C 231.484 117.180,230.676 117.027,230.370 116.909 C 227.305 115.730,217.039 115.259,209.815 115.966 M189.545 128.516 C 185.641 129.692,185.567 136.304,189.441 137.776 C 193.293 139.241,196.667 137.080,196.667 133.148 C 196.667 129.243,193.648 127.280,189.545 128.516 M226.592 129.089 C 225.761 130.913,226.567 132.037,228.704 132.037 C 230.364 132.037,230.571 131.942,230.891 131.033 C 231.523 129.236,230.698 128.148,228.704 128.148 C 227.261 128.148,226.960 128.282,226.592 129.089 M215.185 135.858 C 215.185 146.970,220.625 151.993,232.407 151.761 C 236.642 151.677,238.029 152.184,240.963 154.888 C 242.809 156.590,243.070 156.193,241.833 153.561 C 240.678 151.104,237.560 148.817,234.670 148.308 C 234.053 148.199,233.375 147.975,233.163 147.810 C 232.612 147.380,231.273 147.105,228.519 146.856 C 224.633 146.505,223.788 146.309,223.557 145.707 C 223.435 145.390,223.148 145.256,222.908 145.404 C 222.635 145.573,222.578 145.508,222.754 145.224 C 222.966 144.881,223.150 144.879,223.557 145.217 C 224.225 145.772,228.867 145.450,229.255 144.822 C 229.405 144.580,229.634 144.395,229.764 144.413 C 230.418 144.500,230.730 144.404,231.177 143.977 C 231.446 143.719,232.112 143.224,232.657 142.875 C 234.631 141.613,234.372 139.520,232.335 140.282 C 231.764 140.496,230.963 140.794,230.556 140.944 C 226.932 142.276,221.927 140.511,218.258 136.609 C 216.333 134.561,215.926 134.054,215.926 133.704 C 215.926 133.500,215.759 133.333,215.556 133.333 C 215.345 133.333,215.185 134.422,215.185 135.858 M202.085 138.554 C 201.124 139.399,200.419 140.172,200.518 140.271 C 200.616 140.369,200.290 140.889,199.793 141.425 C 199.296 141.961,198.889 142.615,198.889 142.878 C 198.889 143.141,198.597 143.465,198.241 143.598 C 195.117 144.762,193.396 149.500,194.626 153.552 C 195.292 155.748,195.282 155.555,194.722 155.556 C 193.615 155.558,190.208 158.404,189.406 159.998 C 188.287 162.220,188.282 166.464,189.394 168.889 C 190.963 172.309,194.048 175.292,195.698 174.986 C 196.572 174.823,197.627 175.135,200.046 176.270 C 204.879 178.539,212.064 179.974,218.685 179.994 C 221.289 180.001,221.079 179.652,217.836 178.580 C 212.029 176.660,205.782 171.521,203.397 166.700 C 201.492 162.850,202.135 161.217,204.787 163.172 C 210.577 167.438,215.676 170.111,218.910 170.575 L 220.556 170.810 217.451 168.908 C 203.357 160.270,198.969 150.828,203.794 139.517 C 204.874 136.984,204.261 136.639,202.085 138.554 M209.170 137.870 C 203.017 147.275,210.738 159.386,225.517 163.514 C 234.406 165.997,238.519 169.326,238.519 174.037 C 238.519 176.329,239.022 176.683,240.340 175.318 C 242.759 172.812,243.686 169.672,242.235 168.896 C 241.822 168.675,241.151 167.841,240.744 167.043 C 239.298 164.209,234.589 161.464,227.037 159.052 C 215.436 155.347,209.997 149.333,209.890 140.093 C 209.871 138.412,209.823 137.037,209.785 137.037 C 209.746 137.037,209.469 137.412,209.170 137.870 M247.422 152.252 C 245.208 154.488,245.190 157.692,247.378 159.970 C 250.904 163.639,256.667 161.227,256.667 156.081 C 256.667 150.995,250.993 148.645,247.422 152.252 M175.833 166.533 C 175.477 166.637,175.185 166.856,175.185 167.021 C 175.185 167.186,174.853 167.408,174.446 167.514 C 174.040 167.621,173.594 168.015,173.455 168.391 C 173.316 168.767,173.023 169.193,172.805 169.338 C 172.573 169.492,172.407 170.928,172.407 172.778 C 172.407 174.627,172.573 176.063,172.805 176.217 C 173.023 176.363,173.311 176.777,173.445 177.138 C 173.578 177.499,173.982 177.904,174.343 178.037 C 174.705 178.170,175.119 178.458,175.264 178.677 C 175.615 179.204,181.793 179.204,182.143 178.677 C 182.288 178.458,182.703 178.170,183.064 178.037 C 183.425 177.904,183.830 177.499,183.963 177.138 C 184.096 176.777,184.384 176.363,184.603 176.217 C 185.130 175.867,185.130 169.689,184.603 169.338 C 184.384 169.193,184.096 168.779,183.963 168.418 C 183.830 168.056,183.425 167.652,183.064 167.519 C 182.703 167.385,182.291 167.101,182.148 166.887 C 181.878 166.481,176.964 166.206,175.833 166.533 M253.358 170.325 C 252.303 172.295,253.251 174.196,255.195 174.011 C 256.721 173.865,257.412 172.517,256.824 170.833 C 256.355 169.491,253.989 169.144,253.358 170.325 M247.130 176.491 C 245.925 177.777,245.964 180.442,247.205 181.684 C 249.502 183.981,253.333 182.349,253.333 179.074 C 253.333 175.804,249.332 174.138,247.130 176.491 M234.307 179.438 C 229.261 183.259,215.455 184.313,203.704 181.774 C 197.177 180.364,196.401 180.594,197.820 183.512 C 198.204 184.301,198.519 185.126,198.519 185.344 C 198.520 185.562,199.098 186.699,199.805 187.870 C 200.511 189.042,201.027 190.000,200.952 190.000 C 200.417 190.000,204.075 196.176,204.828 196.543 C 207.007 197.607,208.465 198.109,210.415 198.465 C 213.090 198.955,220.159 198.785,220.846 198.215 C 221.131 197.978,221.458 197.878,221.572 197.992 C 221.795 198.215,224.878 197.403,225.185 197.040 C 225.287 196.919,226.077 196.593,226.940 196.316 C 228.211 195.906,230.244 194.074,229.426 194.074 C 229.305 194.074,229.551 193.635,229.973 193.098 C 230.395 192.561,230.741 191.845,230.741 191.506 C 230.741 191.166,230.941 190.689,231.185 190.444 C 231.430 190.200,231.501 190.000,231.343 190.000 C 231.186 190.000,231.403 189.561,231.825 189.024 C 232.247 188.487,232.593 187.918,232.593 187.759 C 232.593 187.599,232.953 186.663,233.394 185.679 C 233.835 184.694,234.159 183.737,234.115 183.552 C 234.071 183.367,234.169 183.117,234.332 182.997 C 235.156 182.390,236.311 179.497,235.848 179.203 C 235.220 178.805,235.122 178.820,234.307 179.438 M179.156 184.078 C 177.377 186.156,178.770 189.259,181.481 189.259 C 183.581 189.259,184.444 188.396,184.444 186.296 C 184.444 184.196,183.581 183.333,181.481 183.333 C 180.249 183.333,179.622 183.534,179.156 184.078 M288.914 232.901 C 288.654 233.529,288.473 234.156,288.512 234.295 C 288.550 234.433,288.443 234.649,288.272 234.773 C 287.959 235.003,287.073 236.461,286.223 238.148 C 285.966 238.657,285.665 239.157,285.555 239.259 C 285.445 239.361,284.611 240.611,283.704 242.037 C 282.796 243.463,281.883 244.752,281.675 244.902 C 281.467 245.051,281.440 245.176,281.615 245.180 C 281.790 245.183,281.540 245.513,281.060 245.914 C 280.579 246.314,280.313 246.648,280.470 246.654 C 280.626 246.661,280.210 247.237,279.544 247.935 C 277.251 250.337,276.482 251.277,276.574 251.564 C 276.625 251.722,276.525 251.810,276.353 251.759 C 275.943 251.638,272.750 254.832,272.870 255.241 C 272.921 255.414,272.838 255.520,272.685 255.478 C 272.424 255.404,271.316 256.268,269.499 257.962 C 269.063 258.369,267.876 259.273,266.861 259.971 C 265.847 260.668,264.690 261.544,264.290 261.916 C 263.891 262.288,263.096 262.800,262.523 263.053 C 261.950 263.307,261.481 263.640,261.481 263.794 C 261.481 263.948,261.329 264.074,261.143 264.074 C 260.956 264.074,259.103 264.986,257.024 266.100 C 254.945 267.215,252.889 268.237,252.455 268.371 C 252.022 268.506,251.231 268.922,250.699 269.297 C 250.167 269.672,249.651 269.898,249.552 269.799 C 249.454 269.701,248.222 270.056,246.816 270.589 C 236.339 274.561,213.217 277.216,204.630 275.433 C 203.815 275.264,202.655 275.040,202.052 274.936 C 201.449 274.831,199.949 274.430,198.718 274.044 C 197.488 273.659,196.116 273.341,195.670 273.338 C 195.224 273.335,194.770 273.190,194.661 273.014 C 194.552 272.838,193.668 272.480,192.695 272.218 C 191.722 271.957,190.768 271.601,190.574 271.427 C 190.381 271.253,190.006 271.111,189.742 271.111 C 189.478 271.111,188.000 270.528,186.456 269.815 C 184.912 269.102,183.554 268.519,183.436 268.519 C 183.030 268.519,178.337 266.109,177.848 265.649 C 177.577 265.394,176.909 265.079,176.363 264.948 C 175.817 264.817,175.072 264.401,174.708 264.022 C 174.343 263.643,173.802 263.333,173.504 263.333 C 173.206 263.333,172.963 263.178,172.963 262.988 C 172.963 262.798,172.633 262.538,172.229 262.410 C 171.593 262.208,168.473 260.058,167.145 258.906 C 166.899 258.693,166.538 258.519,166.343 258.519 C 166.147 258.519,165.932 258.377,165.864 258.203 C 165.796 258.030,164.491 256.849,162.963 255.578 C 157.880 251.349,155.217 248.564,151.080 243.148 C 149.835 241.519,148.652 240.083,148.451 239.959 C 148.250 239.834,148.115 239.667,148.151 239.588 C 148.288 239.290,147.275 237.407,146.978 237.407 C 146.807 237.407,146.667 237.169,146.667 236.878 C 146.667 236.587,146.452 236.129,146.190 235.860 C 145.927 235.591,145.424 234.756,145.072 234.004 C 144.448 232.674,143.336 231.948,142.610 232.397 C 142.413 232.519,140.892 232.688,139.231 232.772 C 137.570 232.856,136.131 233.005,136.033 233.103 C 135.653 233.482,136.366 235.453,137.213 236.367 C 137.703 236.895,138.031 237.401,137.941 237.491 C 137.696 237.736,141.028 241.020,142.260 241.748 C 142.851 242.097,143.333 242.583,143.333 242.829 C 143.333 243.075,143.745 243.766,144.249 244.365 C 144.753 244.963,145.058 245.559,144.928 245.689 C 144.798 245.819,144.886 245.926,145.123 245.926 C 145.361 245.926,145.556 246.102,145.556 246.317 C 145.556 246.531,145.913 247.490,146.349 248.446 C 146.786 249.403,147.528 251.269,147.999 252.593 C 148.470 253.917,149.041 254.954,149.270 254.898 C 149.498 254.842,149.591 254.949,149.476 255.135 C 149.225 255.540,152.396 258.221,152.730 257.887 C 152.858 257.759,152.963 257.852,152.963 258.095 C 152.963 258.695,156.004 260.578,158.452 261.494 C 161.447 262.615,168.579 268.980,170.170 271.953 C 171.268 274.005,176.386 275.926,180.753 275.926 C 182.736 275.926,182.923 276.011,184.815 277.778 C 185.905 278.796,187.018 279.630,187.288 279.630 C 187.557 279.630,187.778 279.755,187.778 279.908 C 187.778 280.456,192.098 282.206,195.370 282.982 C 201.253 284.378,209.130 283.924,212.100 282.019 C 213.362 281.209,216.899 281.274,218.889 282.143 C 219.398 282.365,221.169 283.141,222.824 283.866 C 226.226 285.357,229.225 285.606,232.374 284.658 C 234.180 284.115,237.751 281.918,237.768 281.340 C 237.797 280.369,241.269 278.685,243.968 278.334 C 244.536 278.260,245.583 278.084,246.296 277.942 C 247.009 277.801,249.759 277.660,252.407 277.628 C 255.584 277.590,257.537 277.404,258.148 277.081 C 259.275 276.485,261.405 274.154,261.716 273.177 C 262.089 272.004,264.438 269.395,266.105 268.303 C 266.618 267.967,267.037 267.452,267.037 267.158 C 267.037 266.864,267.174 266.707,267.341 266.811 C 267.508 266.914,268.549 266.257,269.653 265.351 C 270.758 264.445,271.881 263.704,272.149 263.704 C 272.434 263.704,272.526 263.512,272.370 263.241 C 272.223 262.986,272.235 262.896,272.395 263.041 C 272.555 263.186,273.269 263.061,273.981 262.763 C 274.693 262.466,276.325 262.222,277.608 262.222 C 279.771 262.222,282.213 261.403,282.220 260.675 C 282.221 260.536,282.431 260.200,282.685 259.928 C 283.848 258.685,285.176 255.068,285.931 251.085 C 286.136 250.003,286.589 248.691,286.938 248.170 C 287.287 247.649,287.535 247.097,287.490 246.944 C 287.444 246.792,287.532 246.701,287.685 246.742 C 287.838 246.783,288.831 245.992,289.891 244.983 C 292.412 242.583,293.709 241.482,294.013 241.481 C 295.042 241.479,296.535 239.292,296.920 237.222 C 297.602 233.551,297.457 233.147,295.370 232.908 C 294.759 232.838,294.158 232.641,294.033 232.471 C 293.276 231.432,289.387 231.759,288.914 232.901 M278.704 237.101 C 275.819 240.467,271.585 244.756,268.162 247.778 C 266.662 249.102,265.170 250.435,264.846 250.741 C 264.521 251.046,262.590 252.542,260.554 254.064 C 258.518 255.586,256.796 256.961,256.728 257.120 C 256.660 257.278,256.369 257.407,256.080 257.407 C 255.792 257.407,255.556 257.574,255.556 257.778 C 255.556 257.981,255.300 258.148,254.988 258.148 C 254.676 258.148,254.325 258.398,254.208 258.704 C 254.091 259.009,253.693 259.259,253.325 259.259 C 252.956 259.259,252.599 259.384,252.531 259.537 C 252.108 260.489,240.619 265.806,235.926 267.221 C 234.806 267.559,233.639 267.929,233.333 268.043 C 233.028 268.157,232.528 268.285,232.222 268.327 C 231.737 268.394,229.777 268.797,226.667 269.470 C 224.761 269.882,223.373 269.957,217.778 269.948 C 206.445 269.930,197.788 267.821,187.315 262.528 C 185.329 261.524,183.704 260.824,183.704 260.971 C 183.704 261.119,183.329 260.910,182.870 260.506 C 182.412 260.102,180.454 258.784,178.519 257.578 C 176.583 256.372,174.750 255.184,174.444 254.938 C 174.139 254.692,172.472 253.388,170.741 252.041 C 166.463 248.712,164.166 246.741,162.652 245.103 C 161.951 244.344,161.231 243.815,161.050 243.927 C 160.870 244.038,160.768 243.976,160.824 243.788 C 160.880 243.600,159.301 241.742,157.315 239.658 C 155.329 237.575,153.704 235.726,153.704 235.551 C 153.704 235.044,152.102 235.260,151.389 235.863 C 149.893 237.128,150.023 237.314,158.148 245.518 C 164.904 252.339,170.629 257.127,174.383 259.096 C 175.130 259.487,175.874 260.017,176.037 260.274 C 176.200 260.531,176.575 260.741,176.870 260.741 C 177.166 260.741,177.407 260.907,177.407 261.111 C 177.407 261.315,177.746 261.481,178.160 261.481 C 178.574 261.481,179.008 261.731,179.125 262.037 C 179.243 262.343,179.634 262.593,179.994 262.593 C 180.355 262.593,180.856 262.840,181.107 263.143 C 181.358 263.446,183.170 264.464,185.134 265.405 C 187.097 266.347,189.124 267.336,189.637 267.603 C 191.098 268.364,200.819 271.526,201.035 271.311 C 201.141 271.204,201.452 271.303,201.725 271.530 C 201.999 271.757,202.222 271.852,202.222 271.742 C 202.222 271.631,202.806 271.702,203.520 271.899 C 206.791 272.803,210.747 273.148,217.778 273.146 C 224.311 273.143,226.037 272.996,231.111 272.013 C 233.892 271.474,241.133 269.310,241.481 268.914 C 241.583 268.798,242.000 268.645,242.407 268.574 C 242.815 268.503,243.231 268.336,243.333 268.204 C 243.435 268.071,243.769 267.917,244.074 267.861 C 245.040 267.684,247.399 266.494,247.403 266.182 C 247.405 266.017,247.574 265.985,247.778 266.111 C 247.981 266.237,248.148 266.154,248.148 265.926 C 248.148 265.698,248.315 265.615,248.519 265.741 C 248.722 265.867,248.889 265.765,248.889 265.516 C 248.889 265.266,248.987 265.160,249.108 265.280 C 249.348 265.521,253.875 263.218,254.444 262.566 C 254.546 262.449,254.880 262.234,255.185 262.088 C 256.948 261.246,259.905 259.230,261.346 257.887 C 261.828 257.438,262.222 257.160,262.222 257.270 C 262.222 257.491,264.910 255.455,266.180 254.273 C 266.625 253.858,267.700 252.935,268.568 252.222 C 270.300 250.799,279.626 241.562,282.130 238.788 C 284.270 236.418,284.156 234.680,281.852 234.557 C 281.135 234.519,280.423 235.094,278.704 237.101 " stroke="none" fill="#6c44c4" fill-rule="evenodd"></path><path id="path2" d="M210.119 139.630 C 210.119 140.954,210.186 141.495,210.268 140.833 C 210.350 140.171,210.350 139.088,210.268 138.426 C 210.186 137.764,210.119 138.306,210.119 139.630 M214.908 139.074 C 214.912 139.889,214.988 140.179,215.077 139.718 C 215.165 139.257,215.162 138.591,215.069 138.236 C 214.977 137.882,214.904 138.259,214.908 139.074 M215.926 143.846 C 215.926 144.243,217.028 146.296,217.241 146.296 C 217.343 146.296,217.151 145.755,216.814 145.093 C 216.127 143.741,215.926 143.459,215.926 143.846 M218.704 148.148 C 219.499 148.963,220.234 149.630,220.336 149.630 C 220.437 149.630,219.870 148.963,219.074 148.148 C 218.278 147.333,217.544 146.667,217.442 146.667 C 217.340 146.667,217.908 147.333,218.704 148.148 M215.185 152.407 C 215.876 153.120,216.525 153.704,216.627 153.704 C 216.729 153.704,216.247 153.120,215.556 152.407 C 214.865 151.694,214.216 151.111,214.114 151.111 C 214.012 151.111,214.494 151.694,215.185 152.407 M227.690 152.114 C 228.150 152.202,228.817 152.199,229.171 152.106 C 229.525 152.014,229.148 151.941,228.333 151.945 C 227.519 151.949,227.229 152.025,227.690 152.114 M231.751 152.119 C 232.408 152.201,233.575 152.202,234.344 152.122 C 235.112 152.042,234.574 151.975,233.148 151.973 C 231.722 151.972,231.094 152.037,231.751 152.119 M211.466 156.019 C 212.374 156.986,213.166 157.778,213.225 157.778 C 213.503 157.778,213.209 157.445,211.574 155.910 L 209.815 154.259 211.466 156.019 M208.889 162.037 C 210.201 163.361,211.358 164.444,211.460 164.444 C 211.562 164.444,210.572 163.361,209.259 162.037 C 207.947 160.713,206.790 159.630,206.688 159.630 C 206.586 159.630,207.577 160.713,208.889 162.037 M202.780 162.959 C 202.650 163.169,202.800 163.230,203.134 163.102 C 203.452 162.980,204.003 163.107,204.357 163.384 C 204.939 163.841,204.952 163.827,204.492 163.241 C 203.930 162.525,203.130 162.393,202.780 162.959 M234.815 167.894 C 234.815 167.957,235.356 168.499,236.019 169.097 L 237.222 170.185 236.134 168.981 C 235.120 167.859,234.815 167.608,234.815 167.894 M211.852 168.330 C 211.852 168.583,214.120 169.708,214.289 169.538 C 214.369 169.458,213.854 169.115,213.143 168.776 C 212.433 168.437,211.852 168.236,211.852 168.330 M222.037 179.630 C 222.514 179.835,221.063 179.986,217.963 180.054 L 213.148 180.160 217.757 180.277 C 222.626 180.401,223.932 180.235,222.953 179.615 C 222.653 179.426,222.157 179.280,221.852 179.291 C 221.486 179.304,221.549 179.420,222.037 179.630 M197.284 180.833 C 197.105 181.545,197.139 181.581,197.518 181.079 C 197.763 180.755,198.213 180.393,198.519 180.275 C 198.907 180.123,198.837 180.050,198.284 180.029 C 197.760 180.010,197.423 180.281,197.284 180.833 M212.690 182.858 C 213.253 182.943,214.087 182.941,214.542 182.853 C 214.998 182.765,214.537 182.696,213.519 182.699 C 212.500 182.701,212.127 182.773,212.690 182.858 M219.727 182.858 C 220.290 182.943,221.124 182.941,221.579 182.853 C 222.035 182.765,221.574 182.696,220.556 182.699 C 219.537 182.701,219.164 182.773,219.727 182.858 M266.389 195.811 C 266.745 195.904,267.329 195.904,267.685 195.811 C 268.042 195.718,267.750 195.641,267.037 195.641 C 266.324 195.641,266.032 195.718,266.389 195.811 " stroke="none" fill="#a184d7" fill-rule="evenodd"></path><path id="path3" d="M209.066 137.500 C 208.526 138.613,208.528 138.648,209.082 137.963 C 209.412 137.556,209.837 137.264,210.026 137.315 C 210.215 137.366,210.370 137.157,210.370 136.852 C 210.370 135.897,209.674 136.243,209.066 137.500 M204.067 138.770 C 203.234 140.933,203.236 141.046,204.081 139.511 C 204.509 138.733,204.804 137.929,204.736 137.726 C 204.668 137.522,204.367 137.992,204.067 138.770 M207.639 140.362 C 207.308 141.190,207.045 142.072,207.054 142.322 C 207.064 142.573,207.393 141.954,207.786 140.948 C 208.179 139.941,208.442 139.059,208.371 138.988 C 208.299 138.917,207.970 139.535,207.639 140.362 M206.781 145.370 C 206.784 146.593,206.853 147.048,206.935 146.382 C 207.018 145.717,207.016 144.717,206.931 144.160 C 206.847 143.603,206.779 144.148,206.781 145.370 M201.981 147.778 C 201.981 149.509,202.045 150.218,202.123 149.352 C 202.201 148.486,202.201 147.069,202.123 146.204 C 202.045 145.338,201.981 146.046,201.981 147.778 M217.037 145.697 C 217.037 147.056,223.381 151.539,225.185 151.455 C 225.491 151.441,225.148 151.211,224.424 150.944 C 221.732 149.952,220.049 148.873,218.564 147.186 C 217.724 146.232,217.037 145.562,217.037 145.697 M212.630 149.630 C 213.891 152.235,220.220 156.989,223.704 157.948 C 224.213 158.088,223.109 157.446,221.250 156.520 C 217.959 154.883,214.949 152.434,213.006 149.815 C 212.337 148.914,212.266 148.879,212.630 149.630 M207.778 150.558 C 207.778 151.859,212.039 156.652,215.000 158.684 L 216.481 159.700 215.192 158.646 C 212.120 156.137,210.530 154.491,209.199 152.443 C 208.417 151.240,207.778 150.392,207.778 150.558 M232.875 151.743 C 233.335 151.832,234.002 151.829,234.356 151.736 C 234.710 151.643,234.333 151.571,233.519 151.575 C 232.704 151.579,232.414 151.655,232.875 151.743 M202.620 152.963 C 202.619 153.497,203.664 155.617,203.691 155.135 C 203.698 155.006,203.460 154.339,203.163 153.654 C 202.865 152.968,202.621 152.657,202.620 152.963 M240.632 155.000 C 241.201 155.713,241.824 156.296,242.017 156.296 C 242.210 156.296,241.802 155.713,241.111 155.000 C 239.507 153.345,239.312 153.345,240.632 155.000 M204.701 157.474 C 206.193 160.099,211.750 165.374,215.370 167.601 C 217.036 168.625,216.065 167.776,213.134 165.645 C 210.225 163.530,206.960 160.254,205.386 157.870 C 204.167 156.025,203.737 155.776,204.701 157.474 M226.481 158.889 C 226.889 159.064,227.472 159.207,227.778 159.207 C 228.128 159.207,228.059 159.090,227.593 158.889 C 227.185 158.714,226.602 158.571,226.296 158.571 C 225.946 158.571,226.015 158.688,226.481 158.889 M217.222 160.202 C 218.221 161.036,222.986 163.336,223.693 163.325 C 224.005 163.320,223.316 162.928,222.164 162.454 C 221.011 161.980,219.261 161.140,218.275 160.588 C 217.289 160.035,216.815 159.861,217.222 160.202 M231.073 160.404 C 231.968 160.802,232.767 161.061,232.847 160.980 C 233.007 160.820,230.153 159.613,229.715 159.656 C 229.566 159.670,230.177 160.007,231.073 160.404 M202.685 162.468 C 202.431 162.570,202.242 163.099,202.265 163.642 C 202.298 164.403,202.348 164.459,202.482 163.889 C 202.577 163.481,202.923 162.940,203.250 162.685 C 203.844 162.223,203.561 162.114,202.685 162.468 M236.058 162.678 C 238.723 164.500,240.102 165.786,240.744 167.043 C 241.466 168.458,242.963 169.712,242.963 168.902 C 242.963 168.691,242.744 168.519,242.476 168.519 C 242.208 168.519,241.616 167.856,241.161 167.047 C 240.315 165.541,237.951 163.397,236.296 162.634 C 235.515 162.274,235.478 162.281,236.058 162.678 M204.382 163.073 C 205.259 164.130,211.852 168.466,211.852 167.986 C 211.852 167.882,211.393 167.560,210.833 167.270 C 210.272 166.980,208.487 165.791,206.865 164.627 C 205.243 163.464,204.126 162.764,204.382 163.073 M202.767 165.370 C 203.305 167.087,205.490 170.134,207.739 172.304 L 210.150 174.630 207.575 171.848 C 206.159 170.318,204.445 168.068,203.767 166.848 C 203.089 165.628,202.639 164.963,202.767 165.370 M230.401 165.311 C 230.986 165.787,234.772 167.638,234.603 167.365 C 234.383 167.008,230.957 165.185,230.506 165.185 C 230.364 165.185,230.316 165.242,230.401 165.311 M236.108 168.890 C 237.864 170.942,237.889 170.965,237.487 170.185 C 237.277 169.778,236.631 169.028,236.053 168.520 L 235.000 167.595 236.108 168.890 M219.052 169.807 C 219.448 170.117,219.948 170.387,220.163 170.407 C 220.379 170.428,220.139 170.578,219.630 170.741 C 218.752 171.022,218.767 171.039,219.907 171.074 C 221.503 171.123,221.430 170.653,219.722 169.875 C 218.642 169.384,218.493 169.369,219.052 169.807 M198.889 176.081 C 200.213 176.757,201.713 177.424,202.222 177.562 C 202.731 177.700,201.752 177.139,200.045 176.314 C 196.319 174.514,195.497 174.349,198.889 176.081 M212.593 176.109 C 212.593 176.358,216.342 178.226,216.508 178.060 C 216.584 177.984,215.734 177.475,214.619 176.928 C 213.505 176.381,212.593 176.013,212.593 176.109 M233.333 179.630 C 232.620 180.020,232.170 180.346,232.333 180.355 C 232.726 180.375,234.815 179.289,234.815 179.065 C 234.815 178.822,234.793 178.830,233.333 179.630 M220.556 179.630 C 220.681 179.833,221.233 179.988,221.781 179.974 C 222.671 179.951,222.698 179.914,222.037 179.630 C 221.008 179.187,220.282 179.187,220.556 179.630 M212.690 179.895 C 213.253 179.981,214.087 179.978,214.542 179.890 C 214.998 179.802,214.537 179.733,213.519 179.736 C 212.500 179.738,212.127 179.810,212.690 179.895 M200.556 181.111 C 200.963 181.286,201.630 181.425,202.037 181.419 C 202.633 181.410,202.596 181.349,201.852 181.111 C 200.585 180.706,199.612 180.706,200.556 181.111 M209.912 182.855 C 210.372 182.943,211.039 182.940,211.393 182.847 C 211.747 182.754,211.370 182.682,210.556 182.686 C 209.741 182.690,209.451 182.766,209.912 182.855 M214.907 183.237 C 216.079 183.310,217.995 183.310,219.167 183.237 C 220.338 183.163,219.380 183.103,217.037 183.103 C 214.694 183.103,213.736 183.163,214.907 183.237 " stroke="none" fill="#8965cc" fill-rule="evenodd"></path><path id="path4" d="M210.815 133.902 C 210.924 134.011,210.536 134.612,209.952 135.237 C 200.888 144.939,208.735 159.791,225.326 164.337 C 233.953 166.701,238.111 170.105,237.692 174.462 C 237.561 175.829,237.662 176.414,238.088 176.759 C 238.561 177.141,238.605 177.130,238.341 176.692 C 238.166 176.401,238.058 175.368,238.102 174.397 C 238.311 169.825,234.042 166.343,225.301 163.956 C 209.926 159.759,202.438 147.306,209.109 137.028 L 210.185 135.370 210.411 139.815 C 210.913 149.718,215.935 155.238,227.593 158.702 C 233.930 160.586,239.208 163.676,241.197 166.667 C 241.536 167.176,241.822 167.373,241.832 167.105 C 241.919 164.941,235.322 160.904,227.337 158.236 C 217.351 154.899,212.781 150.818,211.114 143.750 C 210.641 141.743,210.758 135.660,211.295 134.352 C 211.466 133.935,211.393 133.704,211.089 133.704 C 210.830 133.704,210.706 133.793,210.815 133.902 M214.611 137.963 C 214.906 147.795,220.429 152.577,231.501 152.588 C 236.212 152.593,238.987 153.489,240.247 155.413 C 240.566 155.899,241.005 156.296,241.223 156.296 C 242.045 156.296,239.370 153.945,237.593 153.105 C 236.007 152.355,235.170 152.229,231.777 152.226 C 220.653 152.216,215.615 147.983,214.801 137.963 L 214.500 134.259 214.611 137.963 M204.856 137.778 C 204.832 138.083,204.315 139.610,203.708 141.171 C 199.680 151.526,205.165 161.521,219.155 169.320 L 222.037 170.926 220.147 171.036 C 216.963 171.221,211.858 168.922,206.251 164.776 C 202.729 162.172,202.015 162.389,203.459 165.623 C 206.402 172.213,212.842 177.011,221.770 179.264 C 224.417 179.932,223.155 180.370,218.589 180.368 C 211.001 180.364,204.252 178.996,199.150 176.427 C 197.749 175.721,196.325 175.217,195.986 175.306 C 195.513 175.432,195.545 175.480,196.121 175.513 C 196.534 175.536,197.228 175.805,197.663 176.109 C 201.536 178.822,209.099 180.476,217.837 180.520 C 226.660 180.565,227.318 180.243,221.455 178.749 C 213.169 176.638,207.214 172.309,204.163 166.177 C 202.361 162.557,202.508 162.508,206.521 165.387 C 212.160 169.433,216.684 171.463,220.274 171.560 C 223.483 171.646,223.368 170.959,219.880 169.199 C 205.821 162.105,199.694 150.981,204.251 140.825 C 204.802 139.597,205.174 138.283,205.077 137.907 C 204.961 137.454,204.886 137.411,204.856 137.778 M232.521 179.273 C 225.907 182.687,215.119 183.296,203.889 180.889 C 198.468 179.728,196.597 179.455,199.074 180.187 C 211.979 184.004,227.922 183.351,234.510 178.736 C 235.832 177.810,234.830 178.080,232.521 179.273 " stroke="none" fill="#bca9e4" fill-rule="evenodd"></path></g></svg>